<svg width="496" height="266" viewBox="0 0 496 300" fill="none" xmlns="http://www.w3.org/2000/svg">
    <path d="M398.455 259.637C398.455 232.197 393.461 205.025 383.758 179.673C374.055 154.32 359.833 131.285 341.904 111.881C323.976 92.4778 302.691 77.0861 279.266 66.5849C255.841 56.0838 230.734 50.6789 205.379 50.6789C180.024 50.6789 154.917 56.0838 131.492 66.5849C108.067 77.0861 86.7827 92.4779 68.8539 111.881C50.9252 131.285 36.7033 154.32 27.0004 179.673C17.2974 205.025 12.3033 232.197 12.3033 259.638L398.455 259.637Z" fill="#D4AAFF"/>
    <path d="M121.684 259.637C121.684 251.865 120.269 244.168 117.521 236.987C114.772 229.806 110.744 223.281 105.665 217.784C100.587 212.288 94.5578 207.928 87.9225 204.954C81.2872 201.979 74.1755 200.448 66.9935 200.448C59.8115 200.448 52.6998 201.979 46.0645 204.954C39.4292 207.928 33.4002 212.288 28.3217 217.784C23.2433 223.281 19.2148 229.806 16.4664 236.987C13.7179 244.168 12.3033 251.865 12.3033 259.637L121.684 259.637Z" fill="#BF86F9"/>
    <rect x="114.571" y="148.493" width="102.736" height="61.6231" rx="9.85814" fill="#27272A"/>
    <path d="M114.572 199.746H217.307" stroke="white" stroke-width="3.28605" stroke-linejoin="round"/>
    <path d="M214.738 251.084C230.674 251.78 268.227 248.575 290.955 230.182C319.364 207.19 318.89 198.628 311.442 200.786C300.6 203.929 261.604 243.707 289.863 254.364C318.123 265.021 351.313 242.239 350.645 226.729C349.976 211.219 313.63 243.286 343.134 256.69C366.737 267.413 388.593 250.149 396.57 240.176C391.633 248.487 422.711 271.981 494.499 240.176" stroke="#4F46E5" stroke-width="3.28605" stroke-linejoin="round"/>
    <path d="M211.946 240.439C214.533 246.582 215.865 253.165 215.865 259.814C166.537 259.814 110.505 259.613 60.2213 259.584C53.8728 259.58 48.7302 254.434 48.7302 248.086C48.7302 241.737 53.8767 236.591 60.2253 236.591H118.656C121.087 231.957 124.236 227.713 127.997 224.014C132.776 219.313 138.451 215.584 144.695 213.04C150.94 210.495 157.633 209.186 164.393 209.186C171.152 209.186 177.845 210.495 184.09 213.04C190.335 215.584 196.009 219.313 200.789 224.014C205.568 228.716 209.36 234.297 211.946 240.439Z" fill="#D83C14"/>
    <path d="M241.622 240.439C244.209 246.582 245.54 253.165 245.54 259.814C196.252 259.814 146.97 259.613 97.6835 259.584C91.335 259.58 86.1885 254.434 86.1885 248.086C86.1885 241.737 91.335 236.591 97.6835 236.591H148.332C150.763 231.957 153.912 227.713 157.673 224.014C162.452 219.313 168.127 215.584 174.371 213.04C180.616 210.495 187.309 209.186 194.069 209.186C200.828 209.186 207.521 210.495 213.766 213.04C220.011 215.584 225.685 219.313 230.465 224.014C235.244 228.716 239.036 234.297 241.622 240.439Z" fill="#FF5D34"/>
    <path d="M137.607 213.959C140.685 210.902 144.847 209.186 149.185 209.186H190.241L162.399 236.838H114.571L137.607 213.959Z" fill="white"/>
    <path d="M137.603 213.979C140.683 210.909 144.854 209.186 149.202 209.186H190.241L169.768 229.591H121.939L137.603 213.979Z" fill="#4338CA"/>
    <path d="M137.597 214.017C140.68 210.924 144.867 209.186 149.234 209.186H190.241L175.788 223.685H127.959L137.597 214.017Z" fill="#4F46E5"/>
    <path d="M173.059 151.414C240.54 178.697 277.825 147.681 277.825 115.165C277.824 85.4373 262.135 60.14 234.235 48.7883C195.015 32.8306 150.266 43.8534 131.083 56.6395C112.789 68.8323 112.825 87.5005 118.023 93.3734C116.375 103.091 124.833 106.288 127.983 106.436C117.015 113.697 119.751 123.892 121.773 129.201C105.498 140.925 142.427 192.055 166.309 186.887C187.97 182.2 179.754 160.957 173.059 151.414Z" fill="#BB8E42"/>
    <path d="M122.739 127.984C127.219 125.125 137.837 119.333 165.511 125.125M127.731 105.949C130.891 102.444 142.666 95.2435 164.485 94.4864M118.317 92.5745C118.561 84.5949 128.215 68.9905 164.878 70.4103M127.219 163.717C135.69 160.617 154.165 160.732 160.296 185.992" stroke="white" stroke-width="3.28605" stroke-linecap="round" stroke-linejoin="round"/>
    <path d="M279.993 111.38C288.339 80.9594 319.821 62.8592 350.31 70.9519L443.305 95.636L413.082 205.798L320.086 181.114C289.598 173.021 271.647 141.8 279.993 111.38Z" fill="#DBBDFA"/>
    <mask id="mask0_289_2585" style="mask-type:alpha" maskUnits="userSpaceOnUse" x="277" y="69" width="167" height="137">
        <path d="M279.994 111.38C288.339 80.9592 319.821 62.859 350.31 70.9517L443.305 95.6358L413.082 205.798L320.087 181.113C289.598 173.021 271.648 141.8 279.994 111.38Z" fill="#D4AAFF"/>
    </mask>
    <g mask="url(#mask0_289_2585)">
        <path d="M383.342 189.154L382.962 189.411C383.099 189.345 383.228 189.258 383.342 189.154Z" fill="#C48EFB"/>
        <path d="M358.666 179.032C358.976 178.948 359.097 178.832 359.104 178.746C358.821 178.863 358.589 178.966 358.666 179.032Z" fill="#C48EFB"/>
        <path d="M354.968 177.515L355.015 177.716C355.048 177.591 355.052 177.505 354.968 177.515Z" fill="#C48EFB"/>
        <path d="M383.344 189.156L384.328 188.505C384.215 188.277 383.781 188.796 383.344 189.156Z" fill="#C48EFB"/>
        <path d="M370.141 202.954L369.89 203.201C369.866 203.328 369.855 203.456 369.858 203.583L370.141 202.954Z" fill="#C48EFB"/>
        <path d="M377.72 195.703C377.791 195.744 377.875 195.762 377.961 195.756C377.928 195.73 377.89 195.712 377.848 195.703C377.807 195.694 377.763 195.694 377.72 195.703Z" fill="#C48EFB"/>
        <path d="M319.391 101.715C319.396 101.694 319.378 101.688 319.377 101.671C319.308 101.721 319.289 101.747 319.391 101.715Z" fill="#C48EFB"/>
        <path d="M303.421 106.38L303.636 106.294C303.655 106.271 303.675 106.248 303.671 106.234L303.421 106.38Z" fill="#C48EFB"/>
        <path d="M360.235 171.902C360.217 171.91 360.198 171.919 360.181 171.928C359.954 172.219 360.101 172.081 360.235 171.902Z" fill="#C48EFB"/>
        <path d="M394.005 116.079C395.369 115.869 391.98 117.173 394.007 116.756C393.797 116.713 395.663 115.656 394.005 116.079Z" fill="#C48EFB"/>
        <path d="M394.007 116.759L394.008 116.761L394.219 116.715L394.007 116.759Z" fill="#C48EFB"/>
        <path d="M384.254 152.078C384.12 152.026 383.971 152.009 383.822 152.027C383.874 152.079 383.983 152.106 384.254 152.078Z" fill="#C48EFB"/>
        <path d="M365.53 165.729L366.037 165.452C365.859 165.522 365.688 165.615 365.53 165.729Z" fill="#C48EFB"/>
        <path d="M393.052 143.746C393.317 143.651 393.556 143.483 393.741 143.261C393.691 143.258 393.641 143.263 393.591 143.276C393.542 143.389 393.467 143.491 393.373 143.573C393.279 143.655 393.169 143.714 393.052 143.746Z" fill="#C48EFB"/>
        <path d="M402.827 135.907C402.741 135.915 402.655 135.929 402.57 135.948L402.281 136.224L402.827 135.907Z" fill="#C48EFB"/>
        <path d="M354.719 89.4181C354.476 89.3757 354.248 89.2843 354.049 89.1492C354.335 89.4499 352.671 90.1854 354.719 89.4181Z" fill="#C48EFB"/>
        <path d="M390.25 139.128L391.886 137.995C391.322 138.341 390.775 138.72 390.25 139.128Z" fill="#C48EFB"/>
        <path d="M358.091 109.545L358.389 109.19C358.266 109.286 358.164 109.408 358.091 109.545Z" fill="#C48EFB"/>
        <path d="M396.511 134.321C396.907 134.288 397.3 134.179 397.668 134C397.713 133.913 397.741 133.819 397.751 133.724L396.511 134.321Z" fill="#C48EFB"/>
        <path d="M354.043 89.146C354.045 89.1462 354.047 89.1469 354.049 89.148C354.05 89.1491 354.052 89.1506 354.052 89.1524C354.052 89.1506 354.05 89.1491 354.049 89.148C354.047 89.1469 354.045 89.1462 354.043 89.146Z" fill="#C48EFB"/>
        <path d="M342.218 94.532C343.987 93.9498 342.875 93.6738 343.148 93.2058C345.195 92.2949 344.25 93.3051 345.058 93.3676C346.324 92.759 347.16 91.8365 348.142 91.5114C348.246 91.5895 348.447 91.5608 348.264 91.7697C349.497 90.7725 352.369 90.3012 353.781 89.0546C353.877 89.0588 353.967 89.0906 354.041 89.1461C353.897 89.0578 353.775 88.9377 353.685 88.7939C353.595 88.6501 353.539 88.4859 353.519 88.3123C354.3 88.0125 354.846 87.3431 355.274 87.6802C354.79 87.8449 354.803 88.0392 354.619 88.2603L355.384 87.765C356.316 88.1367 354.327 88.3985 354.467 88.869C356.013 88.0864 357.72 86.8539 359.004 86.5871C359.454 87.1431 356.192 87.8525 358.004 87.8279L356.027 88.2729C357.781 88.7478 354.848 88.6178 356.504 89.2056C359.072 88.5052 359.217 87.8867 361.775 87.1808C362.229 86.6112 361.428 86.7049 361.881 86.1331C365.23 84.162 365.182 86.8158 367.527 84.9713C368.067 84.2703 368.068 83.2977 370.063 83.0779L369.664 84.0981C372.113 83.297 370.708 82.452 373.405 82.0571C373.048 82.5384 371.58 83.0192 371.975 82.9804C373.808 83.0123 373.003 82.1031 374.266 81.6357L374.74 82.2546C377.288 81.2016 379.972 79.6295 382.785 78.4319C382.692 78.7103 382.271 79.1214 383.007 79.1007C383.88 78.6773 384.797 78.2904 385.74 77.9382L386.095 77.8076L386.267 77.7462L386.37 77.7185C386.5 77.6779 386.634 77.6487 386.767 77.6313C387.004 77.6044 387.24 77.619 387.464 77.6745C387.868 77.7956 388.206 78.0566 388.422 78.4139C388.628 78.7534 388.723 79.1557 388.695 79.5696C388.976 79.6603 389.234 79.8035 389.456 79.9923C389.435 80.1548 389.135 80.2569 389 80.1241C388.847 80.3795 388.943 80.3824 389.126 80.3787C389.306 80.3732 389.568 80.3016 389.664 80.4856C389.606 80.9206 389.137 80.8578 389.012 80.6153C389.094 80.9618 389.042 81.3379 388.866 81.6705C388.814 81.7856 388.75 81.896 388.676 81.9996C388.656 82.0291 388.644 82.0536 388.618 82.0884L388.505 82.2162L388.277 82.4725C387.971 82.8147 387.652 83.1568 387.326 83.4935C386.171 84.7646 384.831 85.8527 383.36 86.714L383.63 86.2095C381.871 87.4234 382.711 88.8366 380.843 89.6828L381.051 89.3427C377.435 92.2138 374.005 96.0543 370.818 97.7401C370.872 98.8388 367.216 100.554 367.741 101.632C365.432 102.984 365.856 102.317 362.912 104.583C362.16 105.228 362.258 106.096 361.423 107.006L361.055 106.618L360.193 108.174L359.143 108.305L358.389 109.192C358.742 108.901 359.249 108.702 359.293 108.862C358.118 110.251 355.856 111.575 355.673 111.427C354.728 112.503 353.778 113.571 352.821 114.632C352.775 114.432 353.256 113.898 353.59 113.423C352.231 115.326 352.988 113.35 351.743 115.094C352.01 114.978 351.8 115.395 351.822 115.493C350.893 116 349.178 117.622 347.967 118.891L348.037 118.455C346.867 119.511 345.677 120.675 344.454 121.875L343.531 122.78L343.063 123.234C342.908 123.382 342.692 123.628 342.514 123.823C342.13 124.239 341.795 124.697 341.515 125.186C341.373 125.435 341.249 125.692 341.146 125.957C341.021 126.214 340.925 126.482 340.86 126.757C340.938 126.478 341.077 126.216 341.267 125.991C341.385 125.853 341.466 125.821 341.508 125.869C341.551 125.917 341.555 126.043 341.523 126.226C341.503 126.331 341.478 126.436 341.446 126.54C341.421 126.661 341.401 126.798 341.366 126.944C341.212 127.076 341.058 127.217 340.903 127.368C340.92 127.779 341.022 127.457 341.114 127.253C341.219 127.043 341.246 126.958 341.24 127.745C341.217 128.005 341.169 128.265 341.098 128.521C341.058 128.674 341.018 128.732 340.961 128.716C340.835 128.686 340.736 128.341 340.72 127.87C340.691 128.517 340.759 129.157 340.922 129.767C340.885 129.834 340.827 129.765 340.759 129.667C340.711 129.563 340.647 129.468 340.569 129.386C340.628 129.581 340.706 129.874 340.786 130.231C340.865 130.634 340.981 131.026 341.134 131.401C341.297 131.798 341.506 132.171 341.759 132.512C341.984 132.783 342.257 133.009 342.566 133.181L342.582 133.32C343.215 133.87 343.97 134.267 344.797 134.483C345.623 134.699 346.501 134.73 347.372 134.572C347.721 134.498 348.067 134.406 348.409 134.296L348.664 134.219L348.873 134.14L349.289 133.981C349.851 133.771 350.441 133.55 351.104 133.302C351.095 133.051 352.15 132.732 352.896 132.269C354.874 131.653 357.092 131.058 359.451 130.219C361.083 129.536 359.888 129.869 360.602 129.484C360.774 129.634 363.132 128.805 361.943 129.365C364.772 128.356 365.558 128.081 369.11 126.702C368.699 126.755 368.251 126.869 368.461 126.726C369.105 126.472 369.966 126.303 369.897 126.429L369.73 126.507C371.896 125.668 374.103 124.971 376.336 124.422C378.598 123.811 380.76 123.243 382.312 122.49L382.137 122.572L385.413 121.233C386.96 120.768 384.536 121.706 385.71 121.475C389.213 119.911 391.426 119.698 394.325 118.467C395.577 118.487 397.621 117.847 399.752 117.12C401.886 116.405 404.104 115.594 405.742 115.421L405.503 115.251C406.25 114.781 406.51 115.079 407.118 114.952C406.987 114.798 406.191 115.015 406.658 114.736C410.028 113.532 413.562 112.508 417.147 111.589L418.493 111.247C418.882 111.137 419.275 111.05 419.67 110.986C420.147 110.928 420.619 111.016 421.023 111.237C421.371 111.45 421.653 111.75 421.844 112.112C422.036 112.474 422.13 112.886 422.12 113.311C422.11 113.415 422.121 113.518 422.153 113.614C422.185 113.71 422.237 113.797 422.305 113.869C422.421 114.003 422.597 114.121 422.725 114.266C422.795 114.334 422.848 114.417 422.882 114.51C422.922 114.607 422.928 114.717 422.898 114.823C422.834 115 422.728 115.161 422.589 115.291C422.451 115.421 422.285 115.517 422.107 115.569C422.101 115.306 422.049 115.05 421.953 114.813C421.93 114.886 421.898 114.957 421.857 115.023C421.822 115.099 421.777 115.17 421.724 115.235C421.675 115.311 421.617 115.381 421.552 115.444L421.456 115.55L421.267 115.718C420.742 116.177 420.205 116.623 419.659 117.06C418.567 117.935 417.441 118.774 416.317 119.609C414.056 121.195 411.909 122.949 409.897 124.855C410.053 124.527 409.932 124.349 410.353 124.033C409.136 124.304 406.984 126.56 407.232 126.925C406.537 127.397 406.843 126.729 406.3 126.866C405.202 127.303 404.433 129.159 403.632 129.099C403.497 129.091 403.781 128.762 403.922 128.601C403.488 129.265 401.13 130.658 402.072 130.73C400.288 131.722 399.176 133.323 397.671 134.004C397.271 135.229 394.717 135.837 395.071 136.871C394.547 135.925 391.741 138.338 391.035 139.534C391.178 139.008 389.95 139.938 390.074 139.265C388.924 140.166 387.986 141.146 388.527 141.446C385.599 142.017 384.894 145.621 382.662 145.159C379.587 148.292 376.672 151.097 373.755 153.713C373.164 152.683 377.093 150.974 376.231 150.096C373.583 152.738 372.505 154.865 369.439 156.893C368.591 157.346 369.555 156.145 369.687 155.786C367.061 158.45 363.975 160.085 361.778 162.644C361.717 162.547 361.923 162.229 362.131 161.947C361.644 162.379 360.836 162.733 361.225 163.133L361.633 162.623C362.928 162.628 360.611 165.562 360.775 165.977C360.688 164.017 357.98 167.665 358.15 164.965C357.878 165.314 357.614 165.856 357.914 166.095C357.351 166.399 357.062 166.349 357.314 165.611C355.668 167.29 356.672 167.257 355.01 168.548C354.854 168.325 355.125 167.979 355.107 167.589C354.856 168.15 354.551 168.688 354.195 169.194C353.989 169.471 353.757 169.727 353.502 169.959C353.359 170.089 353.21 170.211 353.055 170.325C352.881 170.459 352.748 170.523 352.478 170.734C352.482 170.621 352.398 170.571 352.383 170.487C352.363 170.407 352.447 170.257 352.642 170.111C352.562 170.18 352.51 170.218 352.411 170.312L352.123 170.595C351.934 170.784 351.755 170.976 351.586 171.168C351.275 171.574 350.997 172.002 350.756 172.45C350.558 172.896 350.395 173.354 350.269 173.82C350.161 174.269 350.098 174.724 350.081 175.179C350.077 175.399 350.072 175.62 350.068 175.842C350.07 176.06 350.11 176.275 350.129 176.49C350.174 176.921 350.251 177.346 350.359 177.761C350.584 178.663 350.917 179.526 351.35 180.331C350.495 180.212 350.59 180.543 350.869 181.072C350.997 181.336 351.231 181.585 351.362 181.861C351.436 181.971 351.483 182.1 351.5 182.236C351.516 182.373 351.502 182.514 351.457 182.649C352.212 183.111 353.054 183.428 353.944 183.585C353.673 183.332 353.431 183.048 353.224 182.738C353.457 182.855 353.702 182.949 353.957 183.018C354.213 183.069 354.47 183.105 354.723 183.131C354.969 183.163 355.221 183.162 355.472 183.13C355.716 183.105 355.956 183.08 356.195 183.055C356.659 182.966 357.095 182.835 357.524 182.761C357.85 182.669 358.184 182.629 358.513 182.644L357.978 182.969L357.71 183.131L357.574 183.212L357.384 183.291C357.461 183.276 357.56 183.261 357.617 183.246L357.792 183.198L358.142 183.103L358.841 182.913L360.239 182.532L358.601 182.461C360.064 181.627 358.294 181.189 360.328 181.08C359.933 181.265 361.834 180.796 362.685 181.243L362.68 181.247C363.426 180.643 364.34 180.312 365.256 180.312C365.581 180.579 365.148 181.481 365.36 181.66C366 180.665 368.855 180.712 369.686 179.634C369.575 179.757 369.502 179.909 369.478 180.068C369.454 180.228 369.481 180.387 369.555 180.521L370.096 179.718C370.817 179.796 370.93 179.879 370.863 180.32C372.972 180.019 370.058 179.19 372.605 179.234C372.416 179.328 372.52 179.41 372.125 179.594C374.654 179.369 376.904 178.202 379.235 178.064C380.019 178.896 377.257 178.711 378.123 179.375C378.944 179.159 379.775 178.891 380.61 178.603L381.864 178.163L382.492 177.94L382.941 177.793C383.538 177.592 384.167 177.589 384.732 177.785C385.296 177.981 385.764 178.365 386.064 178.878L385.869 178.471C385.974 178.394 386.101 178.356 386.225 178.365C386.348 178.374 386.46 178.429 386.539 178.52C386.673 178.766 386.736 179.05 386.721 179.341L386.704 179.847C386.674 180.014 386.658 180.182 386.654 180.35C386.639 180.508 386.637 180.667 386.648 180.823C386.672 180.98 386.709 181.133 386.759 181.281C386.701 180.967 386.053 180.956 386.205 181.011C386.131 181.774 385.904 182.528 385.537 183.226C385.198 183.779 384.821 184.311 384.409 184.816C383.951 185.424 383.458 186.072 382.913 186.762L382.999 186.236C381.857 187.016 380.391 188.691 379.271 189.648C379.176 190.17 378.555 190.737 379.214 190.675C377.041 191.702 375.705 193.421 374.415 195.096C373.13 196.776 371.888 198.408 370.046 199.405C370.379 199.059 370.679 198.418 370.412 198.692L368.203 201.324C368.699 201.438 368.701 201.188 369.445 200.916C369.182 201.638 368.751 202.299 368.191 202.841C369.071 201.544 367.691 202.358 367.062 202.67C367.232 202.682 367.175 202.948 367.308 203.001C365.528 203.747 367.698 203.817 365.628 205.198L365.565 204.952C365.077 205.734 364.511 206.467 363.875 207.138C363.262 207.102 364.405 206.293 364.177 205.974C363.235 206.99 362.876 208.538 361.679 209.111C362.004 208.604 362.594 207.999 362.916 207.489C361.587 208.087 361.576 208.301 360.813 208.97L360.89 208.907L359.103 210.432L359.612 210.098C359.19 212.128 357.306 212.779 356.158 214.932C357.295 212.86 356.158 214.4 355.965 213.961C355.464 214.301 354.743 214.861 354.833 214.586C354.319 215.632 353.378 215.733 352.655 217.212C352.513 217.168 351.831 218.056 351.771 217.643C350.859 218.758 352.163 217.557 352.198 217.763C351.432 218.787 350.538 219.712 349.54 220.51C348.384 221.501 347.348 222.627 346.458 223.862C344.711 225.991 344.591 226.589 342.907 228.502C342.202 229.011 343.163 227.764 343.163 227.764C342.216 228.572 341.343 229.467 340.559 230.436C340.693 230.196 340.46 230.348 340.122 230.573C339.414 231.346 339.836 231.277 338.797 232.191C338.936 231.855 339.107 231.53 339.307 231.222C338.512 232.172 337.764 233.147 336.916 234.106C336.604 234.273 337.33 233.43 337.583 233.045C336.632 234.066 335.735 235.135 334.895 236.247L335.575 235.624C335.214 236.004 335.295 235.725 335.541 235.424C336.299 234.442 336.806 234.18 336.902 234.178L336.297 234.859C336.97 234.417 337.568 233.862 338.06 233.22C338.737 232.446 339.443 231.543 340.089 230.893L339.788 231.673C340.166 231.165 340.54 230.653 340.908 230.136C341.251 229.914 341.588 229.865 340.985 230.541C342.04 229.74 341.714 229.626 342.658 228.975C342.769 228.911 342.742 228.963 342.671 229.055L343.499 228.069C343.38 228.305 343.849 228.118 343.247 228.63C345.062 227.19 345.666 225.797 346.515 225.421L346.397 225.575C348.561 223.221 346.388 225.129 347.787 223.138C348.368 222.959 348.956 222.788 349.552 222.625L349.517 222.144C349.76 221.921 350.242 221.481 350.262 221.673C350.951 220.625 349.999 221.704 350.33 221.028C351.704 220.159 353.291 217.803 354.012 218.02C354.19 217.391 352.766 218.918 353.807 217.563C354.662 217.738 355.101 216.088 356.365 215.304C356.33 215.899 355.202 216.712 356.483 215.944C356.632 214.854 358.601 214.071 359.387 213.128C359.028 212.686 361.112 211.093 362.428 209.509C362.479 209.743 365.409 207.031 366.939 205.864L366.976 205.981C366.775 205.256 368.259 203.956 369.177 202.847C369.427 203.178 369.359 203.475 368.932 204.147L369.894 203.202C370.046 202.667 370.342 202.172 370.747 201.775L370.875 202.383C372.141 201.113 373.007 199.407 374.907 198.045C374.629 197.582 372.603 198.332 374.073 196.35C374.334 196.484 374.738 196.762 374.367 197.295C374.542 196.941 374.798 196.63 375.112 196.388L374.756 197.412C375.648 196.819 374.867 196.745 375.491 196.182C375.765 196.48 376.136 195.947 376.278 196.261C376.153 196.439 375.639 196.658 375.522 196.997C376.246 196.381 377.232 195.748 377.722 195.704C377.498 195.596 377.332 195.312 377.787 194.785C379.039 193.502 378.575 194.708 379.473 194.127C379.578 193.616 380.609 193.03 380.182 192.56C380.558 192.193 380.837 192.335 381.103 192.315C381.566 191.465 384.134 189.216 382.899 189.458L382.698 189.593C382.72 189.552 382.757 189.515 382.785 189.466L382.78 189.471L382.785 189.466C383.691 188.187 384.788 187.049 386.031 186.097L386.945 185.341C387.106 185.194 387.274 185.023 387.436 184.86C387.607 184.701 387.761 184.525 387.896 184.334C388.032 184.143 388.165 183.949 388.293 183.752C388.409 183.548 388.51 183.338 388.596 183.121C388.775 182.697 388.892 182.253 388.942 181.804L389.18 181.832C389.256 180.708 389.071 179.604 388.64 178.608C388.306 177.754 387.654 177.085 386.813 176.734C386.606 176.523 386.435 176.279 386.305 176.011C386.193 175.752 386.165 175.504 386.358 175.442C386.042 175.323 385.716 175.231 385.381 175.167C385.1 175.119 384.844 175.119 384.581 175.077C384.32 175.022 384.032 175.024 383.669 174.972C383.206 174.912 382.737 174.879 382.265 174.872C383.078 174.553 382.955 174.475 382.879 174.446C382.844 174.433 382.829 174.433 382.972 174.426L383.32 174.409C383.488 174.424 383.712 174.442 384.01 174.468C383.733 174.427 383.478 174.37 383.244 174.352C383.007 174.343 382.791 174.335 382.588 174.328L382.286 174.322L382.032 174.323C381.892 174.327 381.756 174.335 381.62 174.349C380.928 174.443 380.255 174.701 379.656 175.102C380.207 174.335 378.282 174.519 377.494 174.865L378.739 175.111C377.909 175.339 377.067 175.491 376.222 175.566L376.564 174.616C372.958 174.185 370.478 177.619 367.625 176.311C366.772 177.112 369.566 176.394 368.823 177.281C367.207 177.47 365.393 176.492 364.891 176.581C362.638 176.488 362.988 178.295 360.652 178.39C360.982 178.66 361.355 179.474 359.673 180.117C358.056 180.31 357.55 179.123 358.533 178.667C358.915 178.566 359.112 178.634 359.108 178.748C359.613 178.53 360.278 178.26 359.603 178.027L359.431 178.393C358.846 178.338 358.253 178.334 357.659 178.382C357.509 178.385 357.37 178.385 357.249 178.377C357.125 178.371 357.015 178.358 356.994 178.313C356.954 178.276 356.928 178.226 356.918 178.17C356.908 178.115 356.916 178.056 356.94 178.002C356.688 178.173 356.601 178.34 356.668 178.443C356.718 178.508 356.786 178.557 356.864 178.584C356.999 178.654 357.154 178.683 357.312 178.666L357.117 178.661C357.075 178.659 357.033 178.65 356.994 178.635C356.93 178.617 356.864 178.603 356.797 178.592C356.681 178.587 356.566 178.569 356.456 178.539C356.362 178.513 356.263 178.501 356.163 178.502C356.08 178.472 355.993 178.449 355.904 178.433C355.704 178.398 355.519 178.314 355.365 178.189C355.21 178.064 355.091 177.901 355.017 177.714C354.976 177.932 354.81 178.358 354.685 178.224C354.476 177.842 354.376 177.608 354.27 177.471C354.22 177.413 354.158 177.369 354.087 177.34C354.033 177.311 353.973 177.293 353.911 177.286C353.672 177.243 353.303 177.318 353.14 176.566C353.41 176.103 353.711 176.192 353.9 176.168C354.093 176.144 354.124 176.104 354.038 175.508C354.339 175.209 354.524 175.277 354.709 175.406C354.795 175.471 354.876 175.543 354.951 175.621C355.01 175.689 355.076 175.751 355.147 175.807C354.907 175.454 355.207 175.138 355.528 175.059C355.621 175.041 355.714 175.029 355.808 175.025L355.931 175.016L355.987 175.011C356.016 175.003 356.071 174.978 356.11 174.963C356.419 174.847 356.719 174.704 357.006 174.534L356.324 175.404C356.686 174.963 357.103 174.57 357.563 174.236L356.699 174.094C357.258 173.797 357.675 173.47 357.827 173.694C358.08 172.954 356.796 173.136 357.455 171.878C358.306 171.623 359.238 170.018 359.976 170.526C357.744 171.923 360.718 171.037 359.059 172.529C359.406 172.123 359.832 171.791 360.306 171.56C360.437 171.578 360.342 171.757 360.237 171.903C362.662 170.956 360.564 170.408 362.615 168.807C362.644 169.399 363.633 169.164 363.904 168.816C363.078 169.463 363.031 168.484 363.565 167.59C365.096 166.851 364.82 166.238 365.531 165.73L364.644 166.209C364.623 165.615 365.315 165.147 366.137 164.303C366.437 164.54 365.462 165.165 365.885 165.039C366.397 163.563 368.689 163.918 369.761 162.343C370.605 162.08 370.356 163.007 371.058 162.723C372.27 160.97 373.149 161.872 374.504 160.138C373.652 160.017 373.658 160.205 374.461 158.782L372 161.316L373.201 159.182C372.372 159.83 371.701 160.885 371.143 161.193C371.669 160.113 371.678 160.308 370.969 160.2C372.663 160.064 372.878 157.982 374.563 157.458L375.449 158.734C377.81 157.715 378.448 155.315 381.217 153.593L380.244 154.034C380.225 153.278 381.762 152.714 382.44 151.861C382.664 152.326 383.286 152.061 383.823 152.029C383.559 151.766 385.697 150.563 385.336 149.584L386.858 149.199C389.062 147.764 388.363 146.205 390.439 144.768C390.158 145.664 391.258 145.222 390.164 146.582C390.824 146.059 391.468 145.654 391.278 145.378C391.841 145.31 392.716 143.398 393.593 143.279C393.745 142.889 393.538 142.416 394.302 141.859C394.44 141.871 394.439 142.049 394.439 142.049C394.302 141.858 395.407 140.871 394.448 140.966C397.354 140.525 400.069 136.372 402.571 135.951C403.916 134.679 405.561 133.18 406.846 132.113C406.842 132.286 406.974 132.294 406.7 132.454C408.743 131.344 407.048 130.551 409.373 129.288C410.841 129.019 408.514 130.463 409.326 130.157C410.466 131.081 411.677 128.022 413.544 127.578L413.262 127.913C414.59 127.442 415.503 125.419 417.279 124.118C417.279 124.118 417.267 124.281 417.39 124.289C418.149 122.787 420.245 120.829 421.793 119.362C421.576 120.175 421.2 120.178 421.818 120.334C422.515 119.68 421.111 119.849 422.509 118.555C422.701 118.5 422.891 118.435 423.078 118.36C423.286 118.283 423.512 118.191 423.76 118.076C424.243 117.869 424.697 117.638 424.97 117.712C424.51 118.25 423.998 118.741 423.443 119.178C423.577 119.175 423.712 119.151 423.843 119.106C423.907 119.084 423.969 119.058 424.029 119.028C424.105 118.983 424.179 118.934 424.25 118.882C424.554 118.655 424.821 118.381 425.042 118.073C425.435 117.455 425.791 116.816 426.105 116.159L426.308 116.424C426.629 115.74 426.795 115.005 426.793 114.275C426.789 113.782 426.711 113.3 426.563 112.842C426.422 112.398 426.256 111.964 426.066 111.541C425.804 110.947 425.491 110.38 425.129 109.847C425.133 109.983 425.131 110.119 425.128 110.251C424.653 110.016 424.268 109.641 424.02 109.171C423.903 108.927 423.722 108.723 423.495 108.579C423.269 108.435 423.003 108.356 422.725 108.35C422.672 108.062 422.598 107.781 422.504 107.507C421.536 107.362 420.528 107.461 419.566 107.796C419.282 107.892 419.003 108.005 418.73 108.136L418 108.499C417.522 108.735 417.049 108.954 416.615 109.138C417.216 108.648 417.86 108.217 418.537 107.851C419.455 107.368 420.45 107.082 421.452 107.012C420.527 106.93 419.577 107.068 418.678 107.416C418.476 107.491 418.279 107.577 418.085 107.673C417.911 107.756 417.748 107.839 417.601 107.918C417.374 108.027 417.163 108.172 416.976 108.346C417.359 108.082 417.78 107.886 418.22 107.768C416.858 108.846 415.318 109.655 413.691 110.146C413.744 108.907 408.555 111.665 406.942 111.386C405.263 112.173 403.537 112.835 401.779 113.364C399.99 113.944 398.124 114.524 396.135 115.283C397.719 115.408 394.974 115.727 395.388 116.285C394.946 116.499 394.484 116.659 394.013 116.76L391.092 117.401C390.378 117.469 391.944 116.949 391.822 116.843C389.773 117.541 390.901 116.9 389.514 117.242C389.845 117.35 388.884 117.801 387.702 118.145L389.407 117.816C386.635 119.141 386.823 118.238 384.027 119.568L384.891 119.07C383.444 119.705 379.455 121.038 378.111 121.945C377.835 121.979 377.454 121.967 378.095 121.7C374.554 122.901 370.341 124.864 367.532 125.579L367.771 125.374C367.148 125.709 366.494 125.97 365.822 126.152C365.853 126.091 366.058 125.948 365.751 126.047C364.909 126.457 364.042 126.802 363.158 127.079L363.873 126.698C360.382 127.727 358.654 128.808 355.777 129.867C355.696 129.524 352.945 130.316 351.569 130.7L351.603 130.634C350.592 130.955 349.662 131.266 348.779 131.585L348.125 131.824C347.928 131.889 347.777 131.921 347.603 131.976C347.273 132.07 346.938 132.13 346.602 132.157C345.892 132.179 345.206 132.003 344.621 131.648C344.036 131.293 343.574 130.773 343.286 130.146C343.271 130.019 343.249 129.887 343.221 129.75C343.204 129.609 343.208 129.454 343.192 129.3L343.169 129.064L343.185 128.813C343.185 128.641 343.197 128.467 343.223 128.295C343.313 127.529 343.64 126.792 344.158 126.188C344.29 126.017 344.441 125.861 344.608 125.725L344.847 125.495L345.188 125.217C345.645 124.848 346.103 124.478 346.554 124.113C347.461 123.391 348.35 122.705 349.175 122.133C348.64 122.447 348.978 121.746 349.486 121.245C350.282 120.732 351.217 119.273 351.446 119.774L351.182 119.98C352.063 119.925 353.471 118.601 354.645 117.656L354.35 116.924C356.215 116.077 358.155 114.373 359.881 112.763C361.613 111.161 363.139 109.661 364.357 109.435C364.94 108.652 365.847 107.9 366.415 107.112L366.711 107.54C368.661 106.139 370.53 104.621 372.308 102.996L372.056 103.727C373.5 102.589 372.781 100.995 374.041 99.8599L374.992 100.193C377.423 98.1045 380.425 96.6295 382.286 93.927C382.343 94.0532 382.352 94.1994 382.312 94.3401C382.272 94.4808 382.185 94.6072 382.067 94.6971C383.231 93.7374 386.912 91.3877 385.653 90.7497C386.23 91.3727 388.207 88.6496 389.263 87.2176L389.469 87.8782C389.649 87.3131 389.858 86.7554 390.094 86.2071C390.217 85.9639 390.363 85.7319 390.531 85.5147C390.737 85.2409 390.942 85.0112 391.391 84.4954C391.633 84.3135 391.813 84.2852 391.857 84.386C391.899 84.482 391.793 84.7134 391.429 84.9373C391.717 84.7683 391.968 84.5399 392.166 84.2689C392.364 83.9978 392.503 83.6909 392.573 83.3703C392.637 83.1328 392.699 82.8893 392.817 82.5656C392.94 82.2445 393.113 81.8455 393.364 81.2554C393.423 81.5914 393.453 81.9342 393.455 82.2803C393.773 81.6534 393.902 80.9601 393.824 80.2923C393.708 79.8854 393.532 79.5028 393.302 79.1567C393.131 78.5599 392.966 77.6939 392.744 76.9123C392.54 76.1292 392.281 75.4237 392.404 75.0949C392.031 75.0775 391.669 74.9928 391.337 74.8447C390.843 74.6527 390.37 74.4163 389.925 74.1381C389.878 73.8693 390.351 73.9001 390.58 73.9609C389.947 73.4939 389.183 73.2257 388.371 73.1865C387.726 73.161 387.072 73.2579 386.442 73.4722C386.161 73.5703 385.893 73.6722 385.64 73.7826L384.945 74.0897C384.528 74.2706 384.087 74.3721 383.646 74.3886C383.612 74.3117 383.555 74.2478 383.484 74.2037C383.413 74.1597 383.33 74.1372 383.243 74.1388L384.668 73.6087L384.986 73.4919L385.389 73.3604C385.631 73.282 385.876 73.2183 386.124 73.1694C386.567 73.0492 387.022 73.0112 387.465 73.0574C387.489 72.7521 386.874 72.6016 386.472 72.4743C386.271 72.3996 386.128 72.3224 386.16 72.1783C386.191 72.0307 386.403 71.8302 386.963 71.5449C386.331 71.7434 385.719 72.0163 385.141 72.3579C384.996 72.4457 384.818 72.545 384.699 72.6289L384.4 72.8626C384.197 73.0186 383.989 73.1745 383.777 73.3258C382.997 73.9316 382.114 74.3786 381.184 74.6383C381.087 74.6196 380.996 74.5817 380.917 74.5269L381.063 74.4008C380.71 74.4849 380.376 74.6487 380.084 74.8795C379.623 74.9519 379.165 75.0668 378.717 75.2227C378.393 74.8377 376.774 75.7027 375.954 75.9986C376.2 76.572 375.106 76.8877 376.251 76.9956C376.109 77.0027 376.384 76.8645 376.917 76.6304C377.032 76.5765 377.143 76.5107 377.246 76.4341C377.234 76.4594 377.22 76.4842 377.206 76.5083C377.735 76.2841 378.428 76.0031 379.217 75.6885C378.95 76.0134 378.618 76.2796 378.246 76.4669C377.874 76.6543 377.472 76.7581 377.07 76.7706C376.81 77.2506 376.527 77.7188 376.221 78.1731C374.858 77.7638 372.579 78.1489 372.13 77.7616C369.746 79.0587 366.352 80.2728 365.105 81.9381C364.439 82.3461 364.203 81.9485 363.89 81.8858C364.258 81.6998 364.607 81.4733 364.931 81.211C363.6 82.0303 360.783 82.9517 360.659 83.7981C358.783 84.1643 361.462 82.7501 359.053 83.8182L359.318 83.4721C356.748 83.8523 354.934 85.0834 353.031 86.2621C351.13 87.4492 349.137 88.57 346.282 88.9684C346.674 88.9016 346.869 88.8665 346.976 88.9422C343.854 89.8469 340.769 91.2201 337.674 92.5242C334.64 93.8612 331.539 95.0025 328.391 95.9408C326.654 96.4965 326.555 96.8579 325.577 97.4722L325.106 97.2741C324.555 97.6449 324.001 98.0091 323.446 98.3667C322.289 98.899 321.085 99.2949 319.859 99.5458C318.465 99.8881 317.109 100.421 315.83 101.128L316.29 101.129C315.138 101.558 312.69 102.653 312.833 102.416C312.598 102.613 312.323 102.75 312.032 102.816L311.966 102.727C311.049 103.166 310.129 103.595 309.205 104.013C307.012 104.831 309.445 103.538 306.286 104.873C305.127 105.419 302.988 106.439 303.435 106.274C303.848 106.089 304.276 105.947 304.712 105.85L303.634 106.292C303.478 106.505 302.651 106.851 305.397 106.103C306.017 105.871 306.636 105.633 307.251 105.383L307.888 105.285L306.301 105.8C307.02 105.643 307.724 105.399 308.399 105.073C308.676 105.067 308.955 105.024 309.228 104.946C309.824 104.674 310.415 104.386 311.003 104.089C311.261 104.128 310.236 104.572 311.499 104.236C312.327 103.822 310.595 104.262 312 103.694C312.939 103.524 312.714 103.739 313.732 103.257C313.906 103.293 313.699 103.423 313.29 103.596C314.201 103.185 315.77 102.738 316.196 102.375C317.199 102.279 319.347 101.236 319.374 101.67C320.148 101.202 320.956 100.801 321.788 100.471C320.371 101.539 325.024 99.4037 324.791 100.162C325.803 99.2475 328.942 98.524 330.907 97.4857C330.769 97.625 330.6 97.7272 330.417 97.7813C331.193 97.5713 331.982 97.4357 332.771 97.3765C332.765 96.8045 334.534 96.052 335.403 95.3605C336.984 95.4005 334.735 96.317 335.332 96.6696C335.129 96.2512 337.672 95.3729 337.073 95.1521C338.262 95.1144 338.058 94.9891 338.763 95.2813C338.735 94.4786 339.741 94.8107 340.504 94.033C342.187 93.8549 341.122 94.6082 342.782 93.7747C343.677 93.7328 342.218 94.532 342.218 94.532ZM382.729 78.226L382.732 78.2381L381.899 78.5861C382.072 78.5111 382.311 78.4072 382.729 78.226ZM386.121 76.9553C386.02 76.9789 385.92 77.0091 385.822 77.0455L385.456 77.173C385.205 77.2663 384.937 77.3658 384.662 77.4681C384.479 77.3015 384.544 77.0342 384.892 76.916C384.82 77.0221 384.994 77.03 385.258 77.01L385.701 76.9677C385.841 76.9451 385.983 76.9409 386.121 76.9553ZM377.655 75.4644C378.17 75.1692 378.387 75.2174 378.498 75.3125C378.246 75.422 377.953 75.5581 377.573 75.7511C377.564 75.7797 377.539 75.818 377.531 75.8495C377.541 75.7155 377.583 75.5832 377.655 75.4644Z" fill="#BF86F9"/>
        <path d="M376.92 76.6292C376.853 76.678 376.783 76.7215 376.71 76.7591C376.83 76.7698 376.951 76.7732 377.073 76.7694L377.209 76.5071L376.92 76.6292Z" fill="#C48EFB"/>
        <path d="M382.897 189.459L382.964 189.412C382.907 189.443 382.845 189.462 382.782 189.467C382.841 189.451 382.855 189.465 382.897 189.459Z" fill="#C48EFB"/>
        <path d="M360.973 106.528L361.056 106.618L361.224 106.313L360.973 106.528Z" fill="#C48EFB"/>
        <path d="M367.057 202.667C366.959 202.671 366.861 202.706 366.778 202.768C366.81 202.783 366.923 202.732 367.057 202.667Z" fill="#C48EFB"/>
        <path d="M362.131 161.947C362.198 161.89 362.26 161.826 362.316 161.757C362.714 161.259 362.42 161.565 362.131 161.947Z" fill="#C48EFB"/>
        <path d="M362.677 181.244C362.375 181.455 362.059 181.642 361.732 181.806C362.283 181.755 362.709 181.684 362.677 181.244Z" fill="#C48EFB"/>
        <path d="M390.069 139.253C390.068 139.258 390.072 139.257 390.073 139.264L390.249 139.128L390.069 139.253Z" fill="#C48EFB"/>
        <path d="M360.303 182.079C360.784 182.121 361.278 182.027 361.732 181.807C361.251 181.812 360.767 181.904 360.303 182.079Z" fill="#C48EFB"/>
        <path d="M385.914 174.939C386.059 174.757 386.208 174.577 386.362 174.4C385.137 173.99 386.249 174.632 385.914 174.939Z" fill="#C48EFB"/>
        <path d="M376.078 179.253L377.004 179.488L377.356 178.791L376.078 179.253Z" fill="#C48EFB"/>
        <path d="M370.009 175.503L370.394 175.332L368.909 175.862L370.009 175.503Z" fill="#C48EFB"/>
        <path d="M401.434 137.766L400.772 137.357C400.349 137.864 400.738 138.612 401.434 137.766Z" fill="#C48EFB"/>
        <path d="M425.614 109.96C425.579 109.552 425.425 109.173 425.172 108.869C424.896 108.489 424.505 108.213 424.049 108.078C424.666 108.617 425.194 109.251 425.614 109.96Z" fill="#C48EFB"/>
        <path d="M356.163 116.166L355.683 116.76L356.693 115.764L356.163 116.166Z" fill="#C48EFB"/>
        <path d="M385.97 132.441L386.404 132.287C386.254 132.317 386.108 132.369 385.97 132.441Z" fill="#C48EFB"/>
        <path d="M407.242 148.371C406.92 148.374 406.773 148.457 406.744 148.538C407.049 148.495 407.301 148.453 407.242 148.371Z" fill="#C48EFB"/>
        <path d="M410.43 150.759L410.437 150.553C410.372 150.665 410.346 150.747 410.43 150.759Z" fill="#C48EFB"/>
        <path d="M385.969 132.439L384.85 132.824C384.9 133.073 385.454 132.679 385.969 132.439Z" fill="#C48EFB"/>
        <path d="M438.892 103.089C439.066 102.966 439.233 102.834 439.392 102.693L438.904 103.034C438.903 103.053 438.898 103.071 438.892 103.089Z" fill="#C48EFB"/>
        <path d="M402.29 122.372L402.597 122.195C402.653 122.078 402.696 121.956 402.726 121.833L402.29 122.372Z" fill="#C48EFB"/>
        <path d="M415.028 115.014C414.729 115.161 414.849 115.597 414.835 115.828C414.915 115.578 415.085 115.357 415.313 115.206C415.248 115.109 415.147 115.041 415.028 115.014Z" fill="#C48EFB"/>
        <path d="M435.582 103.954L435.922 103.715L435.582 103.954Z" fill="#C48EFB"/>
        <path d="M393.094 127.504C393.035 127.446 392.958 127.408 392.874 127.392C392.899 127.425 392.931 127.452 392.969 127.471C393.007 127.49 393.049 127.501 393.094 127.504Z" fill="#C48EFB"/>
        <path d="M403.891 154.879C403.911 154.876 403.931 154.872 403.951 154.867C404.245 154.642 404.067 154.74 403.891 154.879Z" fill="#C48EFB"/>
        <path d="M356.868 200.489C355.495 200.353 359.109 199.934 357.041 199.834C357.233 199.927 355.155 200.486 356.868 200.489Z" fill="#C48EFB"/>
        <path d="M438.555 103.266L438.045 103.589C438.282 103.449 438.438 103.35 438.555 103.266Z" fill="#C48EFB"/>
        <path d="M357.041 199.831L357.041 199.829L356.826 199.821L357.041 199.831Z" fill="#C48EFB"/>
        <path d="M375.556 168.085C375.673 168.169 375.813 168.222 375.962 168.241C375.925 168.178 375.826 168.125 375.556 168.085Z" fill="#C48EFB"/>
        <path d="M397.182 159.534L396.619 159.676C396.81 159.652 397 159.605 397.182 159.534Z" fill="#C48EFB"/>
        <path d="M364.904 173.959C364.623 173.985 364.348 174.088 364.113 174.257C364.16 174.272 364.21 174.279 364.261 174.28C364.338 174.182 364.437 174.103 364.549 174.047C364.661 173.991 364.783 173.961 364.904 173.959Z" fill="#C48EFB"/>
        <path d="M353.431 179.112C353.516 179.125 353.603 179.133 353.69 179.135L354.041 178.94L353.431 179.112Z" fill="#C48EFB"/>
        <path d="M438.824 102.984C438.764 103.1 438.67 103.199 438.554 103.267L438.904 103.033C438.918 102.985 438.91 102.953 438.824 102.984Z" fill="#C48EFB"/>
        <path d="M366.427 179.124L364.553 179.813C365.188 179.618 365.814 179.388 366.427 179.124Z" fill="#C48EFB"/>
        <path d="M359.133 182.218C358.742 182.151 358.334 182.159 357.931 182.24C357.866 182.314 357.814 182.397 357.78 182.487L359.133 182.218Z" fill="#C48EFB"/>
        <path d="M401.43 234.215C399.568 234.339 400.574 234.882 400.189 235.267C397.975 235.64 399.148 234.897 398.383 234.636C397.001 234.91 395.956 235.595 394.921 235.665C394.841 235.564 394.639 235.541 394.87 235.385C393.421 236.043 390.521 235.785 388.834 236.64C388.743 236.612 388.663 236.559 388.606 236.487C388.723 236.608 388.809 236.754 388.86 236.916C388.91 237.077 388.922 237.25 388.897 237.423C388.064 237.519 387.363 238.031 387.036 237.598C387.547 237.559 387.584 237.368 387.819 237.2L386.952 237.489C386.146 236.898 388.137 237.139 388.123 236.649C386.425 237.022 384.458 237.79 383.147 237.729C382.854 237.079 386.192 237.203 384.433 236.777L386.46 236.838C384.886 235.942 387.689 236.797 386.238 235.817C383.574 235.856 383.275 236.418 380.618 236.465C380.032 236.903 380.832 237.012 380.246 237.452C376.499 238.527 377.228 235.971 374.485 237.173C373.782 237.717 373.531 238.658 371.545 238.374L372.193 237.486C369.617 237.652 370.759 238.819 368.048 238.531C368.518 238.154 370.062 238.054 369.67 237.993C367.905 237.507 368.449 238.586 367.108 238.725L366.808 238.008C364.072 238.393 361.071 239.247 358.042 239.706C358.203 239.46 358.716 239.167 357.999 239.004C357.045 239.197 356.058 239.343 355.056 239.449L354.679 239.487L354.496 239.504L354.39 239.505C354.253 239.512 354.117 239.507 353.983 239.491C353.747 239.458 353.522 239.385 353.319 239.276C352.96 239.058 352.7 238.721 352.583 238.322C352.471 237.943 352.483 237.53 352.616 237.136C352.367 236.978 352.154 236.776 351.988 236.538C352.051 236.386 352.367 236.362 352.464 236.524C352.677 236.315 352.585 236.288 352.408 236.246C352.231 236.207 351.96 236.211 351.914 236.009C352.083 235.603 352.52 235.78 352.578 236.046C352.588 235.69 352.735 235.339 352.991 235.061C353.071 234.963 353.161 234.872 353.259 234.79C353.286 234.766 353.304 234.746 353.339 234.718L353.48 234.623L353.767 234.431C354.151 234.177 354.548 233.925 354.949 233.68C356.394 232.738 357.971 232.018 359.615 231.55L359.224 231.971C361.238 231.234 360.789 229.658 362.813 229.304L362.525 229.581C366.762 227.702 371.068 224.84 374.584 224.001C374.815 222.925 378.793 222.174 378.562 221C381.144 220.267 380.562 220.807 383.993 219.346C384.887 218.91 385.015 218.045 386.057 217.372L386.313 217.839L387.547 216.548L388.596 216.682L389.555 216.011C389.138 216.205 388.596 216.272 388.594 216.106C390.089 215.054 392.618 214.336 392.757 214.524C393.947 213.718 395.141 212.921 396.34 212.133C396.333 212.337 395.731 212.734 395.285 213.111C397.089 211.608 395.849 213.331 397.502 211.953C397.214 211.999 397.524 211.649 397.528 211.548C398.557 211.289 400.633 210.146 402.131 209.219L401.952 209.624C403.355 208.892 404.806 208.062 406.297 207.206L407.424 206.56L407.993 206.237C408.181 206.132 408.453 205.947 408.676 205.803C409.154 205.496 409.596 205.136 409.992 204.732C410.194 204.528 410.38 204.309 410.548 204.079C410.735 203.861 410.897 203.625 411.03 203.376C410.883 203.626 410.681 203.845 410.44 204.016C410.29 204.12 410.204 204.13 410.175 204.074C410.146 204.017 410.174 203.893 410.252 203.725C410.298 203.627 410.35 203.532 410.407 203.44C410.462 203.329 410.518 203.202 410.589 203.068C410.771 202.98 410.957 202.881 411.146 202.774C411.235 202.372 411.054 202.658 410.912 202.833C410.757 203.01 410.709 203.085 410.917 202.325C411.006 202.079 411.119 201.839 411.254 201.61C411.332 201.471 411.385 201.426 411.436 201.456C411.551 201.515 411.557 201.874 411.452 202.334C411.647 201.715 411.745 201.079 411.745 200.448C411.797 200.393 411.835 200.473 411.876 200.585C411.896 200.698 411.934 200.805 411.988 200.904C411.981 200.701 411.98 200.398 411.996 200.033C412.023 199.623 412.011 199.215 411.96 198.814C411.904 198.39 411.797 197.977 411.641 197.584C411.492 197.266 411.287 196.979 411.032 196.736L411.052 196.598C410.581 195.908 409.952 195.336 409.208 194.922C408.464 194.508 407.623 194.26 406.74 194.195C406.383 194.18 406.025 194.184 405.666 194.205L405.399 194.216L405.177 194.24L404.733 194.291C404.135 194.355 403.508 194.421 402.803 194.496C402.747 194.742 401.644 194.788 400.803 195.051C398.731 195.155 396.431 195.179 393.934 195.404C392.179 195.659 393.421 195.634 392.631 195.829C392.503 195.641 390.009 195.857 391.304 195.611C388.307 195.884 387.476 195.954 383.685 196.405C384.096 196.457 384.558 196.457 384.318 196.544C383.63 196.629 382.754 196.579 382.853 196.474L383.034 196.439C380.723 196.713 378.409 196.839 376.107 196.814C373.761 196.844 371.524 196.855 369.829 197.198L370.019 197.163L366.505 197.643C364.889 197.708 367.475 197.403 366.28 197.335C362.489 197.978 360.293 197.633 357.172 198.104C355.966 197.773 353.823 197.883 351.574 198.057C349.326 198.219 346.971 198.452 345.343 198.212L345.53 198.436C344.686 198.705 344.511 198.352 343.891 198.323C343.978 198.505 344.804 198.493 344.28 198.647C340.71 198.974 337.027 199.086 333.322 199.084L331.932 199.08C331.528 199.09 331.126 199.076 330.727 199.04C330.25 198.977 329.816 198.775 329.483 198.46C329.201 198.169 329.005 197.808 328.913 197.41C328.821 197.012 328.835 196.59 328.954 196.182C328.991 196.083 329.006 195.981 329 195.88C328.994 195.779 328.967 195.682 328.919 195.595C328.841 195.437 328.702 195.279 328.615 195.107C328.565 195.024 328.535 194.93 328.526 194.832C328.512 194.728 328.535 194.62 328.591 194.525C328.698 194.37 328.842 194.241 329.01 194.149C329.177 194.057 329.362 194.006 329.548 194C329.486 194.256 329.47 194.517 329.502 194.77C329.543 194.705 329.593 194.644 329.649 194.59C329.703 194.526 329.764 194.468 329.833 194.419C329.9 194.357 329.974 194.304 330.053 194.259L330.172 194.181L330.399 194.065C331.024 193.752 331.659 193.453 332.299 193.166C333.581 192.592 334.886 192.059 336.188 191.531C338.784 190.559 341.312 189.395 343.749 188.051C343.513 188.33 343.584 188.532 343.096 188.734C344.344 188.774 347.005 187.126 346.859 186.712C347.653 186.428 347.185 186.998 347.745 187.001C348.921 186.851 350.141 185.246 350.901 185.504C351.029 185.545 350.67 185.792 350.492 185.912C351.083 185.378 353.723 184.617 352.83 184.313C354.811 183.797 356.298 182.524 357.929 182.24C358.632 181.154 361.258 181.201 361.183 180.112C361.446 181.158 364.782 179.521 365.772 178.539C365.499 179.013 366.926 178.418 366.633 179.039C367.977 178.453 369.137 177.738 368.691 177.313C371.67 177.488 373.279 174.177 375.319 175.179C379.1 172.912 382.642 170.923 386.136 169.117C386.443 170.261 382.203 170.938 382.811 172.001C386.052 170.104 387.642 168.313 391.13 167.114C392.067 166.887 390.825 167.809 390.605 168.124C393.831 166.199 397.237 165.384 400.021 163.455C400.055 163.563 399.774 163.82 399.499 164.041C400.082 163.744 400.955 163.603 400.681 163.119L400.155 163.511C398.904 163.184 401.9 160.922 401.848 160.479C401.428 162.397 404.986 159.541 404.127 162.11C404.481 161.841 404.875 161.382 404.647 161.077C405.269 160.922 405.535 161.043 405.102 161.693C407.126 160.479 406.146 160.261 408.087 159.426C408.181 159.679 407.829 159.947 407.747 160.329C408.133 159.848 408.567 159.404 409.042 159.003C409.311 158.786 409.602 158.596 409.909 158.435C410.08 158.345 410.256 158.264 410.435 158.192C410.638 158.106 410.783 158.077 411.099 157.939C411.066 158.048 411.134 158.118 411.127 158.203C411.125 158.285 411.005 158.409 410.78 158.501C410.875 158.455 410.935 158.431 411.054 158.365L411.407 158.163C411.637 158.026 411.86 157.885 412.073 157.741C412.479 157.427 412.858 157.081 413.206 156.707C413.512 156.326 413.787 155.923 414.029 155.503C414.249 155.095 414.427 154.671 414.561 154.236C414.621 154.024 414.682 153.811 414.743 153.597C414.798 153.386 414.814 153.168 414.851 152.955C414.919 152.526 414.954 152.096 414.956 151.668C414.97 150.739 414.87 149.822 414.658 148.935C415.455 149.263 415.448 148.919 415.314 148.338C415.258 148.051 415.095 147.751 415.04 147.452C414.996 147.327 414.983 147.191 415.003 147.055C415.022 146.919 415.072 146.786 415.15 146.666C414.539 146.031 413.806 145.515 412.985 145.142C413.182 145.455 413.343 145.789 413.464 146.14C413.268 145.969 413.055 145.818 412.827 145.687C412.591 145.574 412.352 145.475 412.115 145.387C411.885 145.295 411.641 145.233 411.389 145.202C411.147 145.166 410.908 145.13 410.671 145.095C410.199 145.066 409.743 145.084 409.31 145.049C408.971 145.058 408.637 145.013 408.322 144.916L408.924 144.735L409.224 144.645L409.377 144.601L409.581 144.571C409.503 144.566 409.403 144.556 409.344 144.557L409.162 144.56L408.8 144.564L408.074 144.575L406.624 144.595L408.19 145.071C406.56 145.515 408.16 146.378 406.164 145.978C406.594 145.898 404.634 145.879 403.926 145.235L403.932 145.233C403.055 145.63 402.085 145.724 401.199 145.496C400.953 145.157 401.604 144.392 401.445 144.166C400.57 144.97 397.82 144.214 396.738 145.051C396.878 144.96 396.988 144.831 397.052 144.682C397.115 144.534 397.13 144.373 397.093 144.225L396.363 144.868C395.686 144.613 395.598 144.504 395.776 144.095C393.658 143.862 396.264 145.387 393.812 144.712C394.019 144.668 393.939 144.563 394.369 144.483C391.864 144.072 389.387 144.642 387.096 144.195C386.551 143.195 389.176 144.062 388.51 143.204C387.659 143.208 386.786 143.261 385.905 143.332L384.578 143.446L383.913 143.506L383.441 143.537C382.812 143.583 382.202 143.429 381.707 143.099C381.211 142.769 380.857 142.281 380.699 141.71L380.782 142.152C380.661 142.201 380.529 142.206 380.411 142.167C380.294 142.127 380.2 142.046 380.147 141.939C380.081 141.667 380.093 141.377 380.182 141.099L380.329 140.614C380.4 140.46 380.46 140.301 380.506 140.14C380.562 139.99 380.604 139.837 380.634 139.683C380.651 139.526 380.654 139.368 380.644 139.213C380.62 139.531 381.244 139.703 381.111 139.611C381.378 138.891 381.792 138.219 382.326 137.635C382.797 137.184 383.298 136.763 383.827 136.377C384.426 135.903 385.069 135.398 385.775 134.866L385.555 135.354C386.861 134.883 388.71 133.627 390.04 132.979C390.266 132.497 391.013 132.103 390.36 132C392.726 131.546 394.46 130.215 396.139 128.916C397.814 127.61 399.436 126.34 401.474 125.833C401.063 126.085 400.608 126.631 400.937 126.431L403.751 124.435C403.3 124.201 403.234 124.443 402.444 124.52C402.885 123.887 403.472 123.355 404.153 122.97C402.968 124.006 404.512 123.561 405.2 123.416C405.039 123.362 405.163 123.119 405.048 123.034C406.962 122.755 404.881 122.148 407.239 121.327L407.236 121.58C407.909 120.945 408.646 120.377 409.433 119.885C410.017 120.073 408.703 120.572 408.842 120.936C410.014 120.188 410.76 118.78 412.065 118.523C411.621 118.933 410.894 119.371 410.451 119.784C411.891 119.536 411.956 119.332 412.867 118.875L412.776 118.917L414.897 117.886L414.319 118.082C415.249 116.223 417.239 116.061 418.903 114.264C417.271 115.985 418.767 114.778 418.841 115.252C419.413 115.046 420.254 114.685 420.096 114.927C420.863 114.044 421.799 114.179 422.879 112.929C423.005 113.006 423.893 112.317 423.845 112.731C425.015 111.879 423.443 112.718 423.463 112.509C424.467 111.709 425.57 111.037 426.741 110.512C428.114 109.842 429.406 109.009 430.584 108.035C432.823 106.41 433.092 105.861 435.214 104.429C436.026 104.112 434.775 105.08 434.775 105.08C435.9 104.533 436.974 103.884 437.983 103.142C437.791 103.341 438.056 103.252 438.44 103.118C439.324 102.546 438.898 102.508 440.139 101.882C439.917 102.173 439.668 102.444 439.395 102.693C440.409 101.971 441.384 101.214 442.451 100.497C442.796 100.413 441.876 101.049 441.533 101.357C442.715 100.606 443.858 99.795 444.956 98.9282L444.139 99.3618C444.585 99.0839 444.435 99.3336 444.12 99.5632C443.134 100.326 442.576 100.453 442.482 100.431L443.243 99.9223C442.478 100.182 441.757 100.571 441.115 101.07C440.262 101.65 439.346 102.349 438.555 102.816L439.047 102.137C438.55 102.534 438.057 102.937 437.567 103.346C437.179 103.475 436.84 103.439 437.597 102.935C436.37 103.447 436.656 103.638 435.576 104.034C435.452 104.068 435.492 104.024 435.584 103.953L434.529 104.701C434.705 104.502 434.203 104.567 434.918 104.221C432.791 105.163 431.848 106.36 430.93 106.513L431.084 106.393C428.385 108.133 430.978 106.827 429.112 108.406C428.505 108.435 427.892 108.454 427.273 108.463L427.183 108.937C426.891 109.093 426.311 109.399 426.341 109.208C425.406 110.05 426.604 109.243 426.109 109.815C424.557 110.314 422.415 112.199 421.774 111.81C421.44 112.374 423.21 111.25 421.855 112.303C421.072 111.921 420.224 113.408 418.799 113.852C418.986 113.285 420.287 112.779 418.849 113.204C418.425 114.221 416.319 114.489 415.316 115.206C415.55 115.723 413.124 116.746 411.442 117.952C411.454 117.712 407.922 119.608 406.141 120.356L406.135 120.234C406.143 120.985 404.373 121.874 403.2 122.719C403.043 122.336 403.186 122.066 403.771 121.522L402.598 122.197C402.313 122.677 401.9 123.082 401.406 123.366L401.439 122.746C399.887 123.66 398.61 125.095 396.422 125.941C396.571 126.457 398.725 126.236 396.793 127.787C396.575 127.593 396.255 127.224 396.751 126.8C396.491 127.099 396.163 127.336 395.798 127.492L396.405 126.59C395.39 126.942 396.126 127.208 395.377 127.598C395.189 127.241 394.693 127.664 394.637 127.326C394.803 127.184 395.357 127.1 395.557 126.801C394.698 127.217 393.582 127.585 393.096 127.505C393.285 127.665 393.373 127.982 392.797 128.378C391.255 129.308 392.014 128.257 390.996 128.596C390.764 129.064 389.616 129.374 389.907 129.936C389.45 130.197 389.217 129.99 388.954 129.943C388.288 130.651 385.224 132.189 386.482 132.261L386.711 132.18C386.679 132.214 386.634 132.241 386.594 132.282L386.6 132.278L386.594 132.282C385.388 133.293 384.034 134.122 382.587 134.735L381.508 135.238C381.315 135.341 381.108 135.464 380.909 135.581C380.703 135.693 380.509 135.825 380.33 135.976C380.149 136.127 379.97 136.282 379.795 136.44C379.631 136.609 379.479 136.788 379.34 136.975C379.058 137.342 378.83 137.742 378.666 138.164L378.444 138.078C378.081 139.146 377.976 140.261 378.137 141.332C378.24 142.241 378.699 143.05 379.423 143.599C379.568 143.854 379.671 144.132 379.728 144.424C379.77 144.703 379.733 144.95 379.53 144.962C379.805 145.155 380.098 145.325 380.405 145.471C380.664 145.586 380.913 145.65 381.155 145.757C381.395 145.874 381.673 145.944 382.011 146.085C382.444 146.258 382.889 146.407 383.344 146.53C382.476 146.637 382.574 146.743 382.641 146.79C382.671 146.811 382.686 146.815 382.545 146.786L382.204 146.716C382.046 146.66 381.834 146.586 381.552 146.488C381.809 146.596 382.041 146.714 382.263 146.791C382.49 146.858 382.697 146.919 382.892 146.977L383.182 147.057L383.428 147.119C383.565 147.151 383.698 147.177 383.833 147.197C384.527 147.278 385.245 147.196 385.928 146.957C385.198 147.562 387.106 147.862 387.958 147.723L386.817 147.176C387.678 147.162 388.533 147.224 389.369 147.361L388.794 148.196C392.172 149.509 395.454 146.804 397.878 148.779C398.91 148.215 396.021 148.215 396.969 147.542C398.581 147.761 400.084 149.158 400.593 149.197C402.748 149.847 402.875 148.011 405.159 148.5C404.909 148.157 404.758 147.277 406.551 147.073C408.165 147.289 408.349 148.562 407.28 148.759C406.885 148.762 406.712 148.647 406.745 148.538C406.2 148.623 405.488 148.719 406.08 149.112L406.341 148.801C406.893 149 407.465 149.151 408.053 149.252C408.198 149.286 408.333 149.322 408.448 149.359C408.566 149.396 408.669 149.435 408.678 149.484C408.707 149.53 408.72 149.585 408.715 149.641C408.71 149.698 408.688 149.753 408.65 149.799C408.939 149.696 409.065 149.556 409.027 149.44C408.996 149.364 408.943 149.3 408.874 149.254C408.761 149.153 408.618 149.087 408.461 149.063L408.648 149.117C408.689 149.13 408.727 149.149 408.761 149.173C408.819 149.206 408.879 149.236 408.941 149.264C409.052 149.297 409.158 149.343 409.257 149.4C409.342 149.448 409.434 149.484 409.531 149.508C409.604 149.558 409.682 149.602 409.763 149.639C409.948 149.723 410.106 149.85 410.223 150.009C410.34 150.169 410.413 150.356 410.437 150.556C410.533 150.355 410.803 149.983 410.889 150.144C410.993 150.566 411.03 150.817 411.097 150.976C411.13 151.044 411.179 151.103 411.24 151.149C411.285 151.19 411.338 151.222 411.397 151.244C411.617 151.345 411.994 151.364 411.958 152.132C411.577 152.513 411.309 152.353 411.12 152.329C410.927 152.304 410.887 152.335 410.817 152.933C410.449 153.147 410.287 153.036 410.141 152.865C410.075 152.78 410.015 152.691 409.963 152.596C409.923 152.516 409.875 152.44 409.821 152.368C409.962 152.769 409.591 153.001 409.26 152.997C409.166 152.991 409.072 152.979 408.98 152.961L408.859 152.939L408.803 152.929C408.773 152.93 408.714 152.94 408.672 152.945C408.343 152.98 408.016 153.045 407.695 153.138L408.578 152.465C408.115 152.802 407.61 153.079 407.079 153.287L407.879 153.639C407.262 153.788 406.774 154 406.685 153.746C406.249 154.399 407.538 154.542 406.577 155.596C405.689 155.63 404.374 156.952 403.791 156.276C406.309 155.48 403.205 155.598 405.193 154.567C404.753 154.874 404.256 155.088 403.738 155.195C403.616 155.145 403.753 154.995 403.892 154.879C401.302 155.193 403.192 156.245 400.795 157.284C400.919 156.704 399.902 156.686 399.551 156.954C400.517 156.535 400.31 157.493 399.563 158.225C397.893 158.559 398.002 159.221 397.183 159.536L398.164 159.293C398.032 159.873 397.242 160.154 396.23 160.766C396 160.462 397.105 160.1 396.663 160.116C395.788 161.417 393.662 160.504 392.219 161.761C391.335 161.806 391.815 160.971 391.062 161.07C389.44 162.466 388.82 161.374 387.064 162.715C387.858 163.044 387.899 162.86 386.757 164.038L389.79 162.198L388.078 163.964C389.047 163.543 389.968 162.689 390.587 162.53C389.8 163.444 389.842 163.253 390.5 163.534C388.826 163.245 388.083 165.206 386.318 165.293L385.788 163.839C383.242 164.238 382.008 166.401 378.886 167.378L379.941 167.193C379.765 167.929 378.132 168.094 377.258 168.75C377.161 168.245 376.49 168.346 375.963 168.243C376.15 168.563 373.772 169.196 373.87 170.233L372.298 170.227C369.798 171.068 370.072 172.75 367.695 173.623C368.196 172.826 367.019 172.981 368.427 171.937C367.654 172.279 366.927 172.51 367.039 172.825C366.477 172.75 365.139 174.383 364.26 174.28C364.013 174.62 364.091 175.128 363.209 175.478C363.079 175.431 363.126 175.26 363.126 175.26C363.209 175.479 361.885 176.159 362.838 176.306C359.913 176.009 356.219 179.352 353.69 179.138C352.062 180.034 350.085 181.075 348.566 181.788C348.615 181.621 348.489 181.581 348.796 181.494C346.533 182.06 347.97 183.249 345.395 183.892C343.906 183.788 346.529 182.97 345.665 183.064C344.799 181.887 342.84 184.545 340.92 184.51L341.28 184.257C339.873 184.382 338.469 186.112 336.417 186.93C336.417 186.93 336.471 186.775 336.353 186.736C335.233 188 332.702 189.374 330.827 190.409C331.246 189.676 331.61 189.766 331.052 189.462C330.21 189.921 331.612 190.107 329.926 191.011C329.726 191.016 329.526 191.032 329.326 191.059C329.105 191.081 328.863 191.114 328.593 191.163C328.072 191.244 327.574 191.354 327.329 191.215C327.912 190.809 328.534 190.461 329.183 190.177C329.052 190.146 328.915 190.136 328.777 190.146C328.711 190.152 328.644 190.161 328.578 190.175C328.493 190.2 328.409 190.229 328.326 190.262C327.974 190.407 327.645 190.605 327.351 190.848C326.812 191.348 326.304 191.878 325.831 192.435L325.703 192.128C325.217 192.71 324.867 193.38 324.681 194.087C324.559 194.565 324.51 195.051 324.536 195.53C324.558 195.995 324.607 196.457 324.682 196.913C324.782 197.553 324.939 198.179 325.152 198.785C325.184 198.652 325.221 198.521 325.258 198.394C325.657 198.74 325.933 199.198 326.052 199.714C326.102 199.98 326.224 200.222 326.407 200.418C326.589 200.613 326.826 200.756 327.093 200.831C327.07 201.122 327.069 201.413 327.091 201.701C327.99 202.082 328.991 202.237 330.007 202.153C330.307 202.13 330.606 202.09 330.903 202.031L331.703 201.861C332.227 201.752 332.74 201.657 333.207 201.588C332.499 201.912 331.766 202.169 331.017 202.355C330.004 202.594 328.969 202.624 327.981 202.441C328.855 202.751 329.809 202.854 330.769 202.741C330.983 202.718 331.196 202.684 331.409 202.639C331.598 202.602 331.777 202.563 331.939 202.522C332.187 202.473 332.429 202.386 332.654 202.264C332.216 202.424 331.758 202.509 331.303 202.513C332.897 201.809 334.595 201.41 336.296 201.339C335.925 202.525 341.656 201.146 343.144 201.818C344.971 201.473 346.811 201.263 348.648 201.188C350.527 201.071 352.482 200.974 354.602 200.734C353.101 200.219 355.839 200.593 355.582 199.95C356.065 199.853 356.553 199.813 357.035 199.832L360.025 199.938C360.733 200.051 359.085 200.164 359.175 200.297C361.337 200.131 360.081 200.471 361.511 200.485C361.219 200.299 362.264 200.1 363.496 200.061L361.762 199.956C364.785 199.363 364.371 200.19 367.418 199.599L366.454 199.866C368.018 199.611 372.219 199.313 373.753 198.77C374.029 198.805 374.394 198.912 373.706 199.01C377.44 198.729 382.021 197.877 384.922 197.884L384.638 198.023C385.327 197.854 386.027 197.763 386.724 197.755C386.679 197.807 386.443 197.893 386.766 197.874C387.686 197.687 388.613 197.568 389.54 197.52L388.751 197.712C392.392 197.584 394.342 196.968 397.397 196.658C397.388 197.009 400.253 196.928 401.683 196.898L401.633 196.953C402.694 196.894 403.674 196.825 404.61 196.736L405.304 196.667C405.511 196.653 405.666 196.66 405.849 196.65C406.192 196.641 406.531 196.666 406.863 196.723C407.556 196.879 408.174 197.22 408.649 197.709C409.124 198.197 409.437 198.815 409.554 199.493C409.537 199.62 409.524 199.753 409.516 199.893C409.495 200.033 409.452 200.183 409.428 200.336L409.389 200.57L409.31 200.808C409.266 200.975 409.209 201.14 409.14 201.3C408.856 202.018 408.349 202.651 407.693 203.106C407.522 203.239 407.335 203.352 407.139 203.442L406.848 203.605L406.447 203.79C405.91 204.033 405.371 204.277 404.841 204.517C403.779 204.991 402.742 205.433 401.796 205.782C402.395 205.612 401.887 206.205 401.267 206.564C400.365 206.862 399.086 208.042 398.992 207.5L399.301 207.366C398.434 207.2 396.732 208.131 395.354 208.754L395.45 209.535C393.428 209.891 391.113 211.057 389.029 212.185C386.941 213.305 385.079 214.377 383.843 214.293C383.078 214.906 382.006 215.407 381.254 216.028L381.078 215.541C378.831 216.412 376.632 217.415 374.495 218.545L374.926 217.901C373.237 218.643 373.522 220.364 372.011 221.149L371.177 220.59C368.288 222.006 365.004 222.687 362.509 224.839C362.486 224.703 362.515 224.559 362.59 224.433C362.665 224.307 362.781 224.206 362.919 224.148C361.546 224.787 357.381 226.146 358.435 227.076C358.036 226.33 355.423 228.473 354.034 229.596L354.003 228.905C353.684 229.407 353.339 229.895 352.97 230.367C352.788 230.571 352.587 230.759 352.368 230.928C352.099 231.141 351.842 231.313 351.274 231.7C350.994 231.816 350.812 231.799 350.796 231.69C350.779 231.587 350.942 231.389 351.351 231.263C351.03 231.355 350.727 231.514 350.466 231.727C350.205 231.94 349.992 232.202 349.842 232.495C349.719 232.709 349.596 232.929 349.399 233.213C349.197 233.493 348.927 233.836 348.533 234.344C348.562 234.005 348.621 233.665 348.708 233.33C348.239 233.858 347.936 234.496 347.84 235.162C347.847 235.584 347.919 235.998 348.053 236.39C348.065 237.01 348.001 237.889 348.015 238.7C348.012 239.509 348.081 240.256 347.877 240.543C348.234 240.653 348.562 240.825 348.845 241.051C349.274 241.359 349.67 241.705 350.03 242.085C350.005 242.357 349.556 242.21 349.351 242.094C349.842 242.703 350.513 243.153 351.288 243.392C351.906 243.577 352.564 243.646 353.228 243.596C353.525 243.571 353.811 243.538 354.084 243.494L354.835 243.37C355.285 243.299 355.738 243.31 356.168 243.404C356.182 243.487 356.22 243.563 356.278 243.623C356.335 243.683 356.41 243.726 356.495 243.746L354.979 243.904L354.641 243.938L354.218 243.966C353.964 243.981 353.71 243.982 353.458 243.968C352.998 243.974 352.548 243.897 352.132 243.742C352.03 244.032 352.586 244.33 352.942 244.553C353.117 244.676 353.236 244.786 353.168 244.917C353.1 245.052 352.844 245.194 352.228 245.331C352.89 245.296 353.553 245.184 354.201 244.997C354.363 244.948 354.561 244.896 354.698 244.845L355.047 244.693C355.283 244.592 355.525 244.493 355.769 244.4C356.679 244.007 357.648 243.795 358.615 243.774C358.704 243.817 358.782 243.876 358.845 243.949L358.671 244.034C359.034 244.041 359.4 243.965 359.741 243.815C360.206 243.859 360.678 243.862 361.152 243.822C361.367 244.276 363.156 243.841 364.024 243.759C363.934 243.143 365.074 243.109 363.994 242.72C364.133 242.749 363.832 242.814 363.255 242.908C363.13 242.931 363.006 242.968 362.887 243.016C362.905 242.995 362.924 242.974 362.945 242.954C362.375 243.04 361.632 243.139 360.788 243.248C361.13 243 361.52 242.825 361.928 242.736C362.335 242.647 362.751 242.646 363.143 242.734C363.518 242.334 363.913 241.952 364.326 241.588C365.539 242.324 367.843 242.517 368.177 243.004C370.818 242.341 374.414 242.011 376.048 240.709C376.798 240.48 376.924 240.924 377.211 241.062C376.806 241.151 376.41 241.283 376.03 241.456C377.528 240.995 380.491 240.804 380.828 240.015C382.738 240.128 379.781 240.83 382.387 240.395L382.042 240.664C384.626 240.935 386.698 240.195 388.842 239.528C390.986 238.852 393.202 238.263 396.068 238.588C395.671 238.555 395.473 238.54 395.389 238.44C398.642 238.341 401.98 237.78 405.309 237.287C408.588 236.748 411.882 236.415 415.17 236.29C416.993 236.184 417.181 235.859 418.286 235.508L418.691 235.817C419.319 235.595 419.948 235.38 420.577 235.172C421.833 234.945 423.1 234.861 424.351 234.924C425.788 234.939 427.236 234.761 428.656 234.394L428.211 234.278C429.436 234.15 432.086 233.699 431.887 233.894C432.165 233.762 432.467 233.697 432.765 233.705L432.805 233.808C433.805 233.611 434.806 233.425 435.807 233.251C438.14 233.004 435.453 233.65 438.853 233.144C440.115 232.904 442.447 232.448 441.972 232.498C441.524 232.574 441.073 232.605 440.627 232.59L441.783 232.431C441.989 232.263 442.878 232.134 440.029 232.175C439.369 232.245 438.71 232.321 438.05 232.411L437.409 232.347L439.077 232.244C438.341 232.217 437.596 232.278 436.86 232.425C436.59 232.362 436.309 232.334 436.026 232.342C435.379 232.457 434.733 232.588 434.087 232.729C433.848 232.628 434.953 232.453 433.645 232.464C432.738 232.658 434.527 232.664 433.021 232.864C432.069 232.795 432.342 232.643 431.233 232.856C431.074 232.778 431.308 232.704 431.748 232.638C430.761 232.809 429.128 232.852 428.623 233.097C427.628 232.94 425.281 233.416 425.366 232.989C424.497 233.25 423.613 233.437 422.723 233.548C424.368 232.868 419.317 233.777 419.737 233.101C418.524 233.734 415.301 233.654 413.133 234.17C413.302 234.069 413.492 234.012 413.683 234.006C412.878 234.016 412.08 233.951 411.301 233.812C411.16 234.367 409.254 234.655 408.236 235.108C406.717 234.676 409.129 234.349 408.641 233.859C408.73 234.315 406.044 234.532 406.567 234.895C405.407 234.635 405.572 234.807 404.965 234.349C404.786 235.133 403.898 234.562 402.96 235.124C401.285 234.878 402.509 234.414 400.69 234.808C399.813 234.626 401.43 234.215 401.43 234.215ZM358.043 239.919L358.043 239.907L358.938 239.777C358.752 239.807 358.493 239.848 358.043 239.919ZM354.434 240.305C354.538 240.308 354.643 240.303 354.747 240.293L355.134 240.26C355.401 240.232 355.685 240.203 355.978 240.172C356.112 240.379 355.981 240.621 355.613 240.649C355.711 240.564 355.543 240.513 355.283 240.467L354.844 240.398C354.702 240.385 354.564 240.354 354.434 240.305ZM362.242 243.853C361.667 244.01 361.47 243.91 361.387 243.79C361.659 243.747 361.977 243.688 362.394 243.596C362.411 243.57 362.444 243.539 362.46 243.511C362.417 243.638 362.342 243.756 362.242 243.853Z" fill="#BF86F9"/>
        <path d="M386.479 132.257L386.402 132.285C386.466 132.27 386.531 132.268 386.593 132.278C386.531 132.279 386.521 132.262 386.479 132.257Z" fill="#C48EFB"/>
        <path d="M405.199 123.417C405.296 123.438 405.4 123.428 405.496 123.389C405.469 123.366 405.346 123.387 405.199 123.417Z" fill="#C48EFB"/>
        <path d="M412.864 118.873L414.021 118.356C413.51 118.562 413.148 118.731 412.864 118.873Z" fill="#C48EFB"/>
        <path d="M418.813 115.475C418.841 115.402 418.85 115.324 418.839 115.25L418.826 115.255L418.813 115.475Z" fill="#C48EFB"/>
        <path d="M399.499 164.039C399.419 164.078 399.342 164.124 399.27 164.177C398.757 164.56 399.121 164.337 399.499 164.039Z" fill="#C48EFB"/>
        <path d="M403.931 145.233C404.277 145.105 404.631 145.002 404.99 144.925C404.443 144.837 404.013 144.8 403.931 145.233Z" fill="#C48EFB"/>
        <path d="M366.635 179.048C366.637 179.043 366.632 179.043 366.634 179.036L366.428 179.124L366.635 179.048Z" fill="#C48EFB"/>
        <path d="M406.442 145.017C405.987 144.856 405.485 144.824 404.99 144.924C405.456 145.039 405.948 145.07 406.442 145.017Z" fill="#C48EFB"/>
        <path d="M436.341 104.585L436.297 104.722C436.315 104.703 436.329 104.681 436.337 104.657C436.344 104.633 436.346 104.608 436.341 104.585Z" fill="#C48EFB"/>
        <path d="M434.016 106.075C434.789 105.708 435.539 105.292 436.261 104.831L436.297 104.722C436.004 105.076 434.465 105.605 434.016 106.075Z" fill="#C48EFB"/>
        <path d="M423.412 110.723L425.465 109.66C425.048 109.746 424.493 109.847 425.39 109.3C422.652 110.382 426.065 109.266 423.412 110.723Z" fill="#C48EFB"/>
        <path d="M417.086 114.089C418.126 113.41 416.955 113.893 416.965 113.78C416.354 114.294 416.209 114.424 417.086 114.089Z" fill="#C48EFB"/>
        <path d="M379.827 145.554C379.64 145.694 379.45 145.831 379.255 145.964C380.335 146.665 379.425 145.767 379.827 145.554Z" fill="#C48EFB"/>
        <path d="M390.453 143.828L389.617 143.369L389.097 143.956L390.453 143.828Z" fill="#C48EFB"/>
        <path d="M395.361 148.964L394.945 149.034L396.518 148.89L395.361 148.964Z" fill="#C48EFB"/>
        <path d="M355.256 177.659L355.791 178.219C356.331 177.834 356.147 177.013 355.256 177.659Z" fill="#C48EFB"/>
        <path d="M324.714 198.549C324.643 198.952 324.694 199.357 324.861 199.714C325.03 200.15 325.338 200.515 325.744 200.759C325.285 200.084 324.938 199.339 324.714 198.549Z" fill="#C48EFB"/>
    </g>
    <path d="M320.086 181.114L324.717 182.343L354.484 72.06L350.31 70.9519C319.821 62.8592 288.339 80.9594 279.993 111.38C271.647 141.8 289.598 173.021 320.086 181.114Z" fill="#BF86F9"/>
    <path d="M279.993 111.38C288.339 80.9594 319.821 62.8592 350.31 70.9519L443.305 95.636L413.082 205.798L320.086 181.114C289.598 173.021 271.647 141.8 279.993 111.38V111.38Z" stroke="white" stroke-width="3.28605" stroke-linejoin="round"/>
    <ellipse rx="6.03021" ry="5.94469" transform="matrix(0.966531 0.256549 -0.264576 0.964365 308.571 153.348)" stroke="white" stroke-width="2.46454" stroke-linejoin="round"/>
    <ellipse rx="25.2833" ry="24.8785" transform="matrix(0.994284 -0.106769 0.110314 0.993897 51.2792 82.9923)" fill="#BB8E42"/>
    <path d="M90.2618 117.195L97.1554 95.4522L110.629 106.36L90.2618 117.195Z" stroke="white" stroke-width="2.46454" stroke-linejoin="round"/>
    <path d="M89.8671 116.893L68.9033 126.564L81.7203 138.212L89.8671 116.893Z" stroke="white" stroke-width="2.46454" stroke-linejoin="round"/>
    <path d="M63.8479 75.3463C66.4535 77.9591 67.8973 81.483 67.8615 85.1427C67.8257 88.8025 66.3133 92.2984 63.657 94.8614C61.0008 97.4244 57.4182 98.8444 53.6974 98.8092C49.9766 98.774 46.4225 97.2864 43.8168 94.6737L53.8323 85.01L63.8479 75.3463Z" stroke="white" stroke-width="2.46454" stroke-linejoin="round"/>
    <path fill-rule="evenodd" clip-rule="evenodd" d="M30.0442 37.0825L18.6013 38.3113L19.7412 48.5814L11.5524 42.1124L4.34443 50.94L12.5333 57.409L2.09256 58.5302L3.3418 69.7855L13.782 68.6644L7.20556 76.7186L16.1803 83.8084L22.7571 75.7538L23.8969 86.0233L35.3398 84.7945L34.2 74.5254L42.3887 80.9943L49.5967 72.1667L41.4081 65.6979L51.8489 64.5767L50.5997 53.3214L40.1584 54.4426L46.7354 46.3878L37.7607 39.2979L31.1841 47.3523L30.0442 37.0825Z" fill="#27272A"/>
</svg>
